<svg width="22" height="22" viewBox="0 0 22 22" fill="none" xmlns="http://www.w3.org/2000/svg">
<path d="M15.5977 14.6523V12.8477H21.0977V14.6523C21.0977 15.2539 20.9258 15.7839 20.582 16.2422C20.2383 16.7005 19.7943 17.0299 19.25 17.2305V21.0977H17.4023V17.2305C16.1992 16.8008 15.5977 15.9414 15.5977 14.6523ZM11.9023 1.84766V5.5H13.75V11H8.25V5.5H10.0977V1.84766C10.0977 1.58984 10.1836 1.375 10.3555 1.20312C10.5273 1.0026 10.7422 0.902344 11 0.902344C11.2578 0.902344 11.4727 1.0026 11.6445 1.20312C11.8164 1.375 11.9023 1.58984 11.9023 1.84766ZM19.25 5.5H21.0977V11H15.5977V5.5H17.4023V1.84766C17.4023 1.58984 17.4883 1.375 17.6602 1.20312C17.8607 1.0026 18.0898 0.902344 18.3477 0.902344C18.6055 0.902344 18.8203 1.0026 18.9922 1.20312C19.1641 1.375 19.25 1.58984 19.25 1.84766V5.5ZM0.902344 14.6523V12.8477H6.40234V14.6523C6.40234 15.9414 5.80078 16.8008 4.59766 17.2305V21.0977H2.75V17.2305C2.20573 17.0299 1.76172 16.7005 1.41797 16.2422C1.07422 15.7839 0.902344 15.2539 0.902344 14.6523ZM8.25 14.6523V12.8477H13.75V14.6523C13.75 15.2539 13.5781 15.7839 13.2344 16.2422C12.8906 16.7005 12.4466 17.0299 11.9023 17.2305V21.0977H10.0977V17.2305C9.55339 17.0299 9.10938 16.7005 8.76562 16.2422C8.42188 15.7839 8.25 15.2539 8.25 14.6523ZM4.59766 1.84766V5.5H6.40234V11H0.902344V5.5H2.75V1.84766C2.75 1.58984 2.83594 1.375 3.00781 1.20312C3.17969 1.0026 3.39453 0.902344 3.65234 0.902344C3.91016 0.902344 4.125 1.0026 4.29688 1.20312C4.4974 1.375 4.59766 1.58984 4.59766 1.84766Z" fill="currentColor"/>
</svg>
