<svg width="22" height="20" viewBox="0 0 22 20" fill="none" xmlns="http://www.w3.org/2000/svg">
<path d="M6.52816 0.5H13.2085V4.37663H6.0835V0.944667C6.0835 0.699184 6.28268 0.5 6.52816 0.5Z" stroke="currentColor"/>
<path d="M6.0835 18.5534V15.1523H13.2085V18.9981H6.52762C6.28287 18.9981 6.0835 18.7991 6.0835 18.5534Z" stroke="currentColor"/>
<path d="M6.0835 5.375H13.2085V9.25108H6.0835V5.375Z" stroke="currentColor"/>
<path d="M6.0835 10.2539H13.2085V14.156H6.0835V10.2539Z" stroke="currentColor"/>
<path d="M14.2085 4.37663V0.5H20.8888C21.1343 0.5 21.3335 0.699184 21.3335 0.944667V4.37663H14.2085Z" stroke="currentColor"/>
<path d="M20.8894 18.9981H14.2085V15.1529H21.3335V18.554C21.3335 18.7989 21.1343 18.9981 20.8894 18.9981Z" stroke="currentColor"/>
<path d="M14.2085 5.375H21.3335V9.25108H14.2085V5.375Z" stroke="currentColor"/>
<path d="M14.2085 10.2539H21.3335V14.156H14.2085V10.2539Z" stroke="currentColor"/>
<path d="M10.0893 15.1654H1.07705C0.574379 15.1654 0.166504 14.7575 0.166504 14.2548V5.24257C0.166504 4.73991 0.574379 4.33203 1.07705 4.33203H10.0893C10.592 4.33203 10.9998 4.73991 10.9998 5.24257V14.2548C10.9998 14.7575 10.592 15.1654 10.0893 15.1654Z" fill="currentColor"/>
</svg>
