<svg width="20" height="16" viewBox="0 0 20 16" fill="currentColor" xmlns="http://www.w3.org/2000/svg">
<path d="M10.9023 4.77734V2.97266H9.09766V4.77734H10.9023ZM10.9023 8.90234V7.09766H9.09766V8.90234H10.9023ZM10.9023 13.0273V11.2227H9.09766V13.0273H10.9023ZM19.1523 6.15234C18.6654 6.15234 18.2357 6.33854 17.8633 6.71094C17.5195 7.08333 17.3477 7.51302 17.3477 8C17.3477 8.48698 17.5195 8.91667 17.8633 9.28906C18.2357 9.66146 18.6654 9.84766 19.1523 9.84766V13.5C19.1523 13.987 18.9661 14.4167 18.5938 14.7891C18.25 15.1615 17.8346 15.3477 17.3477 15.3477H2.65234C2.16536 15.3477 1.73568 15.1615 1.36328 14.7891C1.01953 14.4167 0.847656 13.987 0.847656 13.5V9.84766C1.36328 9.84766 1.79297 9.67578 2.13672 9.33203C2.48047 8.95964 2.65234 8.51562 2.65234 8C2.65234 7.51302 2.46615 7.08333 2.09375 6.71094C1.75 6.33854 1.33464 6.15234 0.847656 6.15234V2.5C0.847656 1.98438 1.01953 1.55469 1.36328 1.21094C1.73568 0.838542 2.16536 0.652344 2.65234 0.652344H17.3477C17.8633 0.652344 18.293 0.838542 18.6367 1.21094C18.9805 1.55469 19.1523 1.98438 19.1523 2.5V6.15234Z" fill="currentColor"/>
</svg>
