<svg width="18" height="20" viewBox="0 0 18 20" fill="none" xmlns="http://www.w3.org/2000/svg">
<path d="M4.73438 16.2812C5.92188 17.4375 7.34375 18.0156 9 18.0156C10.6562 18.0156 12.0625 17.4375 13.2188 16.2812C14.4062 15.0938 15 13.6719 15 12.0156C15 10.3594 14.4062 8.95312 13.2188 7.79688C12.0625 6.60938 10.6562 6.01562 9 6.01562C7.34375 6.01562 5.92188 6.60938 4.73438 7.79688C3.57812 8.95312 3 10.3594 3 12.0156C3 13.6719 3.57812 15.0938 4.73438 16.2812ZM4.6875 2.3125C4.5 2.09375 4.26562 1.98438 3.98438 1.98438C3.70312 1.98438 3.46875 2.09375 3.28125 2.3125C3.09375 2.5 3 2.73438 3 3.01562C3 3.29688 3.09375 3.53125 3.28125 3.71875C3.46875 3.90625 3.70312 4 3.98438 4C4.26562 4 4.5 3.90625 4.6875 3.71875C4.90625 3.53125 5.01562 3.29688 5.01562 3.01562C5.01562 2.73438 4.90625 2.5 4.6875 2.3125ZM7.6875 2.3125C7.5 2.09375 7.26562 1.98438 6.98438 1.98438C6.70312 1.98438 6.46875 2.09375 6.28125 2.3125C6.09375 2.5 6 2.73438 6 3.01562C6 3.29688 6.09375 3.53125 6.28125 3.71875C6.46875 3.90625 6.70312 4 6.98438 4C7.26562 4 7.5 3.90625 7.6875 3.71875C7.90625 3.53125 8.01562 3.29688 8.01562 3.01562C8.01562 2.73438 7.90625 2.5 7.6875 2.3125ZM15 0.015625C15.5625 0.015625 16.0312 0.203125 16.4062 0.578125C16.8125 0.953125 17.0156 1.42188 17.0156 1.98438V18.0156C17.0156 18.5781 16.8125 19.0469 16.4062 19.4219C16.0312 19.7969 15.5625 19.9844 15 19.9844H3C2.4375 19.9844 1.95312 19.7969 1.54688 19.4219C1.17188 19.0469 0.984375 18.5781 0.984375 18.0156V1.98438C0.984375 1.42188 1.17188 0.953125 1.54688 0.578125C1.95312 0.203125 2.4375 0.015625 3 0.015625H15ZM6.1875 14.8281L11.8125 9.15625C12.5938 9.9375 12.9844 10.8906 12.9844 12.0156C12.9844 13.1094 12.5938 14.0469 11.8125 14.8281C11.0312 15.6094 10.0938 16 9 16C7.90625 16 6.96875 15.6094 6.1875 14.8281Z" fill="currentColor"/>
</svg>
