<svg width="343" height="346" viewBox="0 0 343 346" fill="none" xmlns="http://www.w3.org/2000/svg">
<g style="mix-blend-mode:multiply">
<mask id="mask0_256_2603" style="mask-type:alpha" maskUnits="userSpaceOnUse" x="0" y="0" width="343" height="346">
<path d="M342.767 346H0V0H342.767V346Z" fill="white"/>
</mask>
<g mask="url(#mask0_256_2603)">
<path d="M340.192 142.924C341.883 152.698 342.778 162.752 342.778 173C342.778 268.552 266.041 346.011 171.384 346.011C76.7368 346.011 0 268.541 0 173C0 77.4588 76.726 0 171.384 0C181.513 0 191.427 0.883643 201.072 2.58627L192.774 50.2275C185.712 48.985 178.554 48.3612 171.384 48.3633C103.192 48.3633 47.9107 104.173 47.9107 173C47.9107 241.838 103.192 297.637 171.384 297.637C239.575 297.637 294.856 241.838 294.856 173C294.856 165.608 294.221 158.344 292.992 151.308L340.192 142.924" fill="#64A70B"/>
</g>
<path d="M279.372 153.783L232.205 162.081C232.819 165.637 233.143 169.29 233.143 173.019C233.143 207.448 205.491 235.358 171.395 235.358C163.38 235.359 155.442 233.784 148.033 230.725L237.96 139.957L204.133 105.819L114.206 196.597C111.174 189.106 109.619 181.1 109.627 173.019C109.627 138.578 137.278 110.668 171.385 110.668C175.049 110.668 178.626 110.991 182.096 111.605L190.415 64.0072C184.132 62.9008 177.764 62.3455 171.385 62.3477C110.834 62.3477 61.7483 111.896 61.7483 173.019C61.7483 234.13 110.834 283.689 171.385 283.689C231.946 283.689 281.021 234.13 281.021 173.019C281.021 166.445 280.461 160.033 279.372 153.783Z" fill="#64A70B"/>
</g>
</svg>
