<svg width="52" height="52" viewBox="0 0 52 52" fill="none" xmlns="http://www.w3.org/2000/svg">
<mask id="mask0_150_30" style="mask-type:alpha" maskUnits="userSpaceOnUse" x="0" y="0" width="52" height="52">
<path d="M51.2424 51.4805H0.757568V0.519531H51.2424V51.4805Z" fill="white"/>
</mask>
<g mask="url(#mask0_150_30)">
<path d="M50.863 21.5702C51.1122 23.0098 51.2439 24.4906 51.2439 26C51.2439 40.0735 39.9417 51.4821 26 51.4821C12.0598 51.4821 0.757568 40.0719 0.757568 26C0.757568 11.9281 12.0582 0.519531 26 0.519531C27.4919 0.519531 28.9521 0.649679 30.3726 0.900453L29.1505 7.91734C28.1103 7.73433 27.0561 7.64245 26 7.64276C15.9563 7.64276 7.81414 15.8627 7.81414 26C7.81414 36.1389 15.9563 44.3572 26 44.3572C36.0436 44.3572 44.1858 36.1389 44.1858 26C44.1858 24.9112 44.0921 23.8414 43.9112 22.805L50.863 21.5702Z" fill="white"/>
</g>
<path d="M41.9052 23.1703L34.9582 24.3924C35.0487 24.9162 35.0963 25.4542 35.0963 26.0034C35.0963 31.0744 31.0236 35.1852 26.0018 35.1852C24.8212 35.1852 23.652 34.9533 22.5608 34.5027L35.8057 21.1339L30.8236 16.1058L17.5786 29.4761C17.132 28.3729 16.903 27.1936 16.9041 26.0034C16.9041 20.9308 20.9768 16.82 26.0002 16.82C26.5398 16.82 27.0668 16.8676 27.5778 16.9581L28.8031 9.94755C27.8777 9.7846 26.9398 9.70281 26.0002 9.70313C17.0819 9.70313 9.85229 17.0009 9.85229 26.0034C9.85229 35.0042 17.0819 42.3036 26.0002 42.3036C34.9201 42.3036 42.1481 35.0042 42.1481 26.0034C42.1481 25.0352 42.0655 24.0908 41.9052 23.1703Z" fill="white"/>
</svg>
