<svg width="146" height="28" viewBox="0 0 146 28" fill="none" xmlns="http://www.w3.org/2000/svg">
<path d="M135.631 4.65409V23.345H145.79V20.0158H139.707V4.65409H135.631ZM121.954 4.65409L114.831 23.345H119.15L120.495 19.9224H128.17L129.439 23.345H133.78L126.805 4.65409H121.954ZM121.462 17.0133L124.292 8.58129L127.069 17.0133H121.461H121.462ZM65.8105 4C62.9414 4 60.172 5.13553 58.2124 7.11293C56.4468 8.89455 55.5151 11.1496 55.5151 13.6342C55.5151 16.5621 56.5376 19.2069 58.3931 21.0802C60.2592 22.9632 62.8934 24 65.8105 24C71.8709 24 76.1051 19.7373 76.1051 13.6342C76.1051 11.1496 75.1725 8.89455 73.4087 7.11382C71.4491 5.13553 68.6796 4 65.8105 4ZM70.3669 18.3001C69.8214 18.8544 69.1707 19.2943 68.4529 19.5938C67.7351 19.8933 66.9647 20.0465 66.187 20.0443C65.4097 20.0462 64.6398 19.8929 63.9225 19.5934C63.2052 19.2939 62.5549 18.8542 62.0097 18.3001C60.8261 17.1049 60.1747 15.4577 60.1747 13.6601C60.1747 10.5685 62.9281 7.95568 66.1879 7.95568C67.8215 7.96531 69.3844 8.62308 70.5333 9.78446C71.6092 10.8684 72.201 12.246 72.201 13.6601C72.201 15.4577 71.5487 17.104 70.3669 18.3001ZM41.7303 7.16544C39.97 8.99333 39 11.4299 39 14.0267C39 16.9243 39.9985 19.3039 41.9679 21.0998C43.9123 22.8858 46.3934 23.8692 48.9573 23.8692C50.35 23.8692 51.4606 23.5453 52.9361 23.0878V18.5012C51.8335 19.3876 50.4354 19.9135 49.0614 19.9135C47.4044 19.9135 45.9698 19.3493 44.9126 18.2823C43.8598 17.2206 43.2814 15.7184 43.2814 14.0525C43.2814 10.597 45.6797 8.08739 48.9831 8.08739C50.4675 8.08739 51.87 8.60354 52.9379 9.50325V4.97001C51.4998 4.4058 50.1756 4.12815 48.8024 4.12815C46.2083 4.12815 43.5635 5.26457 41.7303 7.16544ZM114.628 6.35917C113.507 5.2272 111.79 4.65231 109.527 4.65231H102.262V23.3459H106.336V16.8139H109.709C114.025 16.8139 116.121 14.792 116.121 10.629C116.121 8.79576 115.618 7.35944 114.628 6.35917ZM111.129 12.8627C110.305 13.6939 108.975 13.6939 107.69 13.6939H106.336V7.77236H107.689C108.971 7.77236 110.294 7.77236 111.111 8.59642C111.6 9.093 111.841 9.80849 111.841 10.7856C111.841 11.7005 111.607 12.3804 111.129 12.8609V12.8627ZM93.4638 4.65409L88.9181 16.0637L84.6287 4.65231H80.399L77.2558 23.3459H81.28L83.1079 10.4492L88.2098 23.3459H89.558L94.9037 10.6361L96.4922 23.3459H100.544L97.7443 4.65231L93.4638 4.65409Z" fill="currentColor"/>
<mask id="mask0_181_2723" style="mask-type:alpha" maskUnits="userSpaceOnUse" x="0" y="0" width="28" height="28">
<path d="M27.6997 27.9609H0V0H27.6997V27.9609Z" fill="currentColor"/>
</mask>
<g mask="url(#mask0_181_2723)">
<path d="M27.4915 11.55C27.6282 12.3398 27.7005 13.1523 27.7005 13.9805C27.7005 21.7022 21.4992 27.9618 13.8498 27.9618C6.20119 27.9618 -6.10352e-05 21.7013 -6.10352e-05 13.9805C-6.10352e-05 6.2596 6.20032 0 13.8498 0C14.6684 0 15.4695 0.0714089 16.2489 0.209002L15.5784 4.05899C15.0077 3.95857 14.4293 3.90816 13.8498 3.90833C8.3391 3.90833 3.87169 8.41841 3.87169 13.9805C3.87169 19.5434 8.3391 24.0526 13.8498 24.0526C19.3605 24.0526 23.8279 19.5434 23.8279 13.9805C23.8279 13.3831 23.7765 12.7961 23.6772 12.2275L27.4915 11.55Z" fill="currentColor"/>
</g>
<path d="M22.5767 12.4281L18.765 13.0987C18.8146 13.3861 18.8408 13.6813 18.8408 13.9826C18.8408 16.7649 16.6062 19.0204 13.8508 19.0204C13.2031 19.0204 12.5616 18.8932 11.9629 18.6459L19.23 11.3109L16.4965 8.55203L9.2293 15.888C8.98424 15.2827 8.85857 14.6356 8.85919 13.9826C8.85919 11.1994 11.0938 8.94391 13.85 8.94391C14.1461 8.94391 14.4352 8.97004 14.7156 9.01967L15.3879 5.17317C14.8801 5.08376 14.3655 5.03889 13.85 5.03906C8.95673 5.03906 4.99005 9.04319 4.99005 13.9826C4.99005 18.9211 8.95673 22.9261 13.85 22.9261C18.7441 22.9261 22.7099 18.9211 22.7099 13.9826C22.7099 13.4514 22.6646 12.9332 22.5767 12.4281Z" fill="currentColor"/>
</svg>
