<svg width="107" height="20" viewBox="0 0 107 20" fill="none" xmlns="http://www.w3.org/2000/svg">
<path d="M96.6308 0.654089V19.345H106.79V16.0158H100.707V0.654089H96.6308ZM82.9536 0.654089L75.8307 19.345H80.1495L81.4951 15.9224H89.1697L90.4387 19.345H94.7797L87.8046 0.654089H82.9536ZM82.4624 13.0133L85.2923 4.58129L88.0689 13.0133H82.4606H82.4624ZM26.8105 0C23.9414 0 21.172 1.13553 19.2124 3.11293C17.4468 4.89455 16.5151 7.1496 16.5151 9.63424C16.5151 12.5621 17.5376 15.2069 19.3931 17.0802C21.2592 18.9632 23.8934 20 26.8105 20C32.8709 20 37.1051 15.7373 37.1051 9.63424C37.1051 7.1496 36.1725 4.89455 34.4087 3.11382C32.4491 1.13553 29.6796 0 26.8105 0ZM31.3669 14.3001C30.8214 14.8544 30.1707 15.2943 29.4529 15.5938C28.7351 15.8933 27.9647 16.0465 27.187 16.0443C26.4097 16.0462 25.6398 15.8929 24.9225 15.5934C24.2052 15.2939 23.5549 14.8542 23.0097 14.3001C21.8261 13.1049 21.1747 11.4577 21.1747 9.66005C21.1747 6.56848 23.9281 3.95568 27.1879 3.95568C28.8215 3.96531 30.3844 4.62308 31.5333 5.78446C32.6092 6.86838 33.201 8.24597 33.201 9.66005C33.201 11.4577 32.5487 13.104 31.3669 14.3001ZM2.73027 3.16544C0.97001 4.99333 0 7.42992 0 10.0267C0 12.9243 0.998487 15.3039 2.96787 17.0998C4.91234 18.8858 7.39343 19.8692 9.95728 19.8692C11.35 19.8692 12.4606 19.5453 13.9361 19.0878V14.5012C12.8335 15.3876 11.4354 15.9135 10.0614 15.9135C8.40438 15.9135 6.96983 15.3493 5.91261 14.2823C4.85984 13.2206 4.28139 11.7184 4.28139 10.0525C4.28139 6.59696 6.67972 4.08739 9.98309 4.08739C11.4675 4.08739 12.87 4.60354 13.9379 5.50325V0.97001C12.4998 0.405802 11.1756 0.128148 9.80244 0.128148C7.20833 0.128148 4.5635 1.26457 2.73027 3.16544ZM75.6278 2.35917C74.5065 1.2272 72.7899 0.652309 70.5268 0.652309H63.2615V19.3459H67.3365V12.8139H70.7093C75.0254 12.8139 77.1211 10.792 77.1211 6.62899C77.1211 4.79576 76.6183 3.35944 75.6278 2.35917ZM72.1287 8.86269C71.3046 9.69387 69.9751 9.69387 68.69 9.69387H67.3365V3.77236H68.6891C69.9706 3.77236 71.2939 3.77236 72.1109 4.59642C72.6003 5.093 72.8406 5.80849 72.8406 6.78562C72.8406 7.70045 72.6066 8.38035 72.1287 8.86091V8.86269ZM54.4638 0.654089L49.9181 12.0637L45.6287 0.652309H41.399L38.2558 19.3459H42.28L44.1079 6.44923L49.2098 19.3459H50.558L55.9037 6.63611L57.4922 19.3459H61.544L58.7443 0.652309L54.4638 0.654089Z" fill="white"/>
</svg>
